<svg xmlns="http://www.w3.org/2000/svg" width="1012" height="300" viewBox="0 0 1012 300">
  <style>
    .b {fill: #0d1117}
    .l {fill: #fff}
    @media (prefers-color-scheme: light) {
      .b {fill: #fff}
      .l {fill: #0d1117}
    }
  </style>
  <rect class="b" x="0" y="0" width="1012" height="300" />
  <path fill="#d8a303" d="M438.08 127.66L438.08 171.78L441.91 171.78L441.91 153.03Q441.91 148.64 444.54 145.90Q447.16 143.16 451.41 143.16L451.41 143.16Q455.39 143.16 457.29 145.39Q459.20 147.61 459.20 152.24L459.20 152.24L459.20 171.78L463.04 171.78L463.04 151.27Q463.04 145.65 460.31 142.68Q457.59 139.70 452.43 139.70L452.43 139.70Q448.77 139.70 446.09 141.31Q443.41 142.92 442.12 145.91L442.12 145.91L441.74 145.91L441.74 127.66L438.08 127.66Z"/>
  <path class="l" d="M484.86 172.34L484.86 172.34Q488.44 172.34 490.97 170.92Q493.50 169.50 494.62 166.83L494.62 166.83L495.03 166.83L495.03 171.81L498.72 171.81L498.72 150.13Q498.72 145.33 495.75 142.65Q492.77 139.97 487.41 139.97L487.41 139.97Q484.36 139.97 481.89 141.01Q479.41 142.05 477.85 143.86Q476.28 145.68 475.99 148.05L475.99 148.05L479.79 148.05Q480.47 145.77 482.45 144.54Q484.42 143.31 487.41 143.31L487.41 143.31Q491.04 143.31 492.95 145.11Q494.85 146.91 494.85 150.31L494.85 150.31L494.85 153.30L485.71 153.71Q480.50 153.94 477.64 156.33Q474.78 158.72 474.78 162.88L474.78 162.88Q474.78 167.15 477.55 169.75Q480.32 172.34 484.86 172.34ZM485.80 168.94L485.80 168.94Q482.52 168.94 480.63 167.31Q478.74 165.69 478.74 162.88L478.74 162.88Q478.74 157.19 485.98 156.87L485.98 156.87L494.85 156.49L494.85 160.88Q494.85 163.14 493.65 164.97Q492.45 166.80 490.40 167.87Q488.35 168.94 485.80 168.94ZM513.72 148.43L513.72 148.43Q513.72 154.85 522.10 156.81L522.10 156.81L526.76 157.92Q529.98 158.69 531.36 159.93Q532.73 161.18 532.73 163.34L532.73 163.34Q532.73 165.92 530.64 167.48Q528.54 169.03 525.00 169.03L525.00 169.03Q521.72 169.03 519.54 167.67Q517.35 166.30 516.74 163.87L516.74 163.87L512.75 163.87Q513.19 167.77 516.44 170.04Q519.70 172.31 524.82 172.31L524.82 172.31Q530.21 172.31 533.47 169.79Q536.72 167.27 536.72 163.11L536.72 163.11Q536.72 159.77 534.58 157.71Q532.44 155.64 527.90 154.56L527.90 154.56L523.62 153.56Q520.40 152.80 518.99 151.57Q517.59 150.34 517.59 148.29L517.59 148.29Q517.59 145.83 519.55 144.36Q521.51 142.90 524.79 142.90L524.79 142.90Q527.81 142.90 529.83 144.23Q531.85 145.56 532.35 147.88L532.35 147.88L536.13 147.88Q535.63 144.13 532.59 141.91Q529.54 139.70 524.91 139.70L524.91 139.70Q519.93 139.70 516.83 142.12Q513.72 144.54 513.72 148.43ZM560.71 132.03L556.87 132.03L556.87 140.23L548.38 140.23L548.38 143.48L556.87 143.48L556.87 162.67Q556.87 165.78 558.13 167.84Q559.39 169.91 561.91 170.93Q564.43 171.96 568.21 171.96L568.21 171.96Q569.59 171.96 571.41 171.84Q573.22 171.72 573.92 171.61L573.92 171.61L573.92 168.33Q573.16 168.44 571.61 168.50Q570.06 168.56 568.42 168.56L568.42 168.56Q564.67 168.56 562.69 167.02Q560.71 165.48 560.71 162.55L560.71 162.55L560.71 143.48L573.92 143.48L573.92 140.23L560.71 140.23L560.71 132.03Z"/>
</svg>
