<svg xmlns="http://www.w3.org/2000/svg" width="152" height="207">
  <path fill="#d8a303" d="M5.59 122L7.69 122L7.69 94.29C7.69 84.14 14.44 77.05 23.93 77.05C32.96 77.05 39.14 82.81 39.14 92.22L39.14 122L41.25 122L41.25 92.14C41.25 81.78 34.33 75.08 24.19 75.08C16.16 75.08 9.75 79.85 7.78 86.68L7.69 86.68L7.69 57.29L5.59 57.29ZM65.40"/>
  <path d="M65.40 120.71C57.75 120.71 52.12 116.07 52.12 109.71C52.12 103.05 57.19 99.14 66.64 98.41L83.02 97.16L83.02 104.98C83.02 113.62 75.11 120.71 65.40 120.71ZM65.27 122.69C73.52 122.69 80.74 118.09 82.97 111.47L83.02 111.47L83.02 122L85.12 122L85.12 90.98C85.12 81.18 78.98 75.08 69.05 75.08C59.30 75.08 52.64 80.45 51.65 89.21L53.67 89.21C54.87 81.48 60.41 77.05 69.05 77.05C77.77 77.05 83.02 82.34 83.02 91.11L83.02 95.27L66.30 96.56C55.56 97.42 49.97 101.85 49.97 109.71C49.97 117.32 56.29 122.69 65.27 122.69ZM93.93 87.28C93.93 93.21 97.84 96.43 105.57 98.28L112.84 99.96C121.04 101.89 124.31 104.86 124.31 110.14C124.31 116.50 117.73 120.71 109.61 120.71C101.28 120.71 95.09 115.43 94.53 108.94L92.38 108.94C92.86 116.46 99.73 122.69 109.66 122.69C119.41 122.69 126.46 117.57 126.46 110.01C126.46 103.74 122.63 100.26 113.48 98.02L106.30 96.30C99.30 94.67 96.04 92.22 96.04 87.24C96.04 81.18 102.31 77.05 109.48 77.05C117.78 77.05 122.89 82.13 123.66 89.17L125.73 89.17C124.91 80.54 118.77 75.08 109.48 75.08C100.93 75.08 93.93 80.06 93.93 87.28ZM136.60 63.39L136.60 75.77L129.72 75.77L129.72 77.70L136.60 77.70L136.60 111.95C136.60 119.16 139.35 122.04 145.58 122.04C145.71 122.04 148.80 122 148.89 122L148.89 120.02C148.84 120.02 145.75 120.07 145.71 120.07C140.81 120.07 138.70 117.79 138.70 111.90L138.70 77.70L148.07 77.70L148.07 75.77L138.70 75.77L138.70 63.39Z"/>
</svg>
