<svg xmlns="http://www.w3.org/2000/svg" width="400" height="400" viewBox="0 0 410 210">
  <path fill="#d8a303" d="M6.70 126L14.09 126L14.09 98.50C14.09 92.31 17.45 86.81 25.22 86.81C31.84 86.81 36.27 90.68 36.27 98.29L36.27 126L43.66 126L43.66 97.04C43.66 86.04 36.78 80.11 27.46 80.11C20.15 80.11 15.98 83.93 14.31 86.81L14.09 86.81L14.09 64.25L6.70 64.25Z"/>
  <path d="M81.34 120.37L81.55 120.37L81.55 126L88.64 126L88.64 94.85C88.64 85.35 81.64 80.11 72.02 80.11C61.10 80.11 55.73 85.87 55.26 93.77L62.22 93.77C62.65 89.26 65.96 86.30 71.76 86.30C77.86 86.30 81.30 89.56 81.30 95.49L81.30 100.09L69.39 100.09C59.04 100.13 53.54 105.12 53.54 113.02C53.54 121.32 59.55 126.73 68.28 126.73C74.94 126.73 79.06 124.02 81.34 120.37ZM70.25 120.59C65.53 120.59 61.10 118.09 61.10 112.77C61.10 108.68 63.77 105.76 69.95 105.76L81.30 105.76L81.30 111.00C81.30 116.63 76.57 120.59 70.25 120.59ZM99.56 93.77C99.56 101.94 106.48 104.52 114.90 106.23C121.21 107.48 126.24 108.47 126.24 113.58C126.24 117.41 123.11 120.67 116.19 120.67C110.17 120.67 106.65 117.96 106.00 113.84L98.79 113.84C98.79 121.96 105.70 126.73 115.63 126.73C126.24 126.73 133.50 121.66 133.50 112.68C133.50 103.87 126.37 101.59 117.91 100.09C112.75 99.14 106.78 98.07 106.78 93C106.78 88.53 110.64 86.17 116.02 86.17C123.06 86.17 125.21 90.21 125.47 93.64L132.34 93.64C132.34 86.17 126.89 80.11 116.27 80.11C107.59 80.11 99.56 84.23 99.56 93.77ZM146.87 80.84L140.77 80.84L140.77 87.03L146.82 87.03L146.82 113.37C146.82 122.26 149.02 126.39 159.71 126.39C161.26 126.39 162.81 126.21 163.45 126.09L163.45 120.16C162.85 120.24 162.29 120.24 161.56 120.24C156.02 120.24 154.21 118.87 154.21 113.45L154.21 87.03L163.15 87.03L163.15 80.84L154.21 80.84L154.21 69.58L146.87 69.58Z"/>
</svg>
